<svg width="1440" height="80" viewBox="0 0 1440 80" fill="none" xmlns="http://www.w3.org/2000/svg">
<rect x="1" width="1440" height="80" fill="#060F14"/>
<rect x="417" y="17" width="72" height="45" rx="4" fill="#29658A" fill-opacity="0.1"/>
<line x1="461.5" y1="17" x2="461.5" y2="62" stroke="white" stroke-opacity="0.1"/>
<path d="M475 36.9992L480 41.9992L479.3 42.6992L475 38.3992L470.7 42.6992L470 41.9992L475 36.9992Z" fill="white"/>
<path d="M444.25 38.5V40.75C444.25 42.1424 443.697 43.4777 442.712 44.4623C441.728 45.4469 440.392 46 439 46C437.608 46 436.272 45.4469 435.288 44.4623C434.303 43.4777 433.75 42.1424 433.75 40.75V38.5H432.25V40.75C432.251 42.4098 432.863 44.0111 433.97 45.248C435.077 46.4849 436.6 47.2706 438.25 47.455V49H435.25V50.5H442.75V49H439.75V47.455C441.4 47.2706 442.923 46.4849 444.03 45.248C445.137 44.0111 445.749 42.4098 445.75 40.75V38.5H444.25Z" fill="white"/>
<path d="M439 44.5C439.995 44.5 440.948 44.1049 441.652 43.4017C442.355 42.6984 442.75 41.7446 442.75 40.75V33.25C442.75 32.2554 442.355 31.3016 441.652 30.5983C440.948 29.8951 439.995 29.5 439 29.5C438.005 29.5 437.052 29.8951 436.348 30.5983C435.645 31.3016 435.25 32.2554 435.25 33.25V40.75C435.25 41.7446 435.645 42.6984 436.348 43.4017C437.052 44.1049 438.005 44.5 439 44.5ZM436.75 33.25C436.75 32.6533 436.987 32.081 437.409 31.659C437.831 31.2371 438.403 31 439 31C439.597 31 440.169 31.2371 440.591 31.659C441.013 32.081 441.25 32.6533 441.25 33.25V40.75C441.25 41.3467 441.013 41.919 440.591 42.341C440.169 42.7629 439.597 43 439 43C438.403 43 437.831 42.7629 437.409 42.341C436.987 41.919 436.75 41.3467 436.75 40.75V33.25Z" fill="white"/>
<rect x="509" y="17" width="72" height="45" rx="4" fill="#29658A" fill-opacity="0.1"/>
<line x1="552.5" y1="17" x2="552.5" y2="62" stroke="white" stroke-opacity="0.1"/>
<path d="M566 36.9992L571 41.9992L570.3 42.6992L566 38.3992L561.7 42.6992L561 41.9992L566 36.9992Z" fill="white"/>
<path d="M534.75 47.5H522C521.602 47.5 521.221 47.342 520.939 47.0607C520.658 46.7794 520.5 46.3978 520.5 46V34C520.5 33.6022 520.658 33.2206 520.939 32.9393C521.221 32.658 521.602 32.5 522 32.5H534.75C535.148 32.5 535.529 32.658 535.811 32.9393C536.092 33.2206 536.25 33.6022 536.25 34V37.045L540.315 34.1425C540.427 34.0628 540.559 34.0154 540.696 34.0054C540.833 33.9955 540.97 34.0234 541.092 34.086C541.214 34.1487 541.317 34.2438 541.389 34.3609C541.461 34.478 541.499 34.6126 541.5 34.75V45.25C541.499 45.3874 541.461 45.522 541.389 45.6391C541.317 45.7562 541.214 45.8513 541.092 45.9139C540.97 45.9766 540.833 46.0045 540.696 45.9946C540.559 45.9846 540.427 45.9372 540.315 45.8575L536.25 42.955V46C536.25 46.3978 536.092 46.7794 535.811 47.0607C535.529 47.342 535.148 47.5 534.75 47.5ZM522 34V46H534.75V41.5C534.751 41.3626 534.789 41.228 534.861 41.1109C534.933 40.9938 535.036 40.8987 535.158 40.8361C535.28 40.7734 535.417 40.7455 535.554 40.7554C535.691 40.7654 535.823 40.8128 535.935 40.8925L540 43.795V36.205L535.935 39.1075C535.823 39.1872 535.691 39.2346 535.554 39.2446C535.417 39.2545 535.28 39.2266 535.158 39.164C535.036 39.1013 534.933 39.0062 534.861 38.8891C534.789 38.772 534.751 38.6374 534.75 38.5V34H522Z" fill="white"/>
<rect x="601" y="17" width="72" height="45" rx="4" fill="#29658A" fill-opacity="0.1"/>
<line x1="645.5" y1="17" x2="645.5" y2="62" stroke="white" stroke-opacity="0.1"/>
<path d="M659 36.9992L664 41.9992L663.3 42.6992L659 38.3992L654.7 42.6992L654 41.9992L659 36.9992Z" fill="white"/>
<path d="M632 31H614C613.602 31 613.221 31.158 612.939 31.4393C612.658 31.7206 612.5 32.1022 612.5 32.5V44.5C612.5 44.8978 612.658 45.2794 612.939 45.5607C613.221 45.842 613.602 46 614 46H620V49H617V50.5H629V49H626V46H632C632.398 46 632.779 45.842 633.061 45.5607C633.342 45.2794 633.5 44.8978 633.5 44.5V32.5C633.5 32.1022 633.342 31.7206 633.061 31.4393C632.779 31.158 632.398 31 632 31ZM624.5 49H621.5V46H624.5V49ZM632 44.5H614V32.5H632V44.5Z" fill="white"/>
<rect x="953" y="17" width="72" height="45" rx="4" fill="#FF6049"/>
<line x1="997.5" y1="17" x2="997.5" y2="62" stroke="white" stroke-opacity="0.1"/>
<path d="M1011 36.9992L1016 41.9992L1015.3 42.6992L1011 38.3992L1006.7 42.6992L1006 41.9992L1011 36.9992Z" fill="white"/>
<g clip-path="url(#clip0_121_23457)">
<path d="M962.772 39.4102L962.863 39.32C973.883 29.4983 984.155 36.8115 987.046 39.2882C987.271 39.4802 987.456 39.7147 987.591 39.9784C987.725 40.2421 987.806 40.5297 987.829 40.8248C987.853 41.1199 987.817 41.4167 987.726 41.6981C987.634 41.9795 987.488 42.2401 987.295 42.4649L984.373 45.387C984.161 45.5996 983.889 45.7436 983.594 45.8004C983.299 45.8571 982.994 45.8239 982.718 45.7052L979.929 44.5278C979.658 44.4127 979.428 44.2206 979.265 43.9754C979.103 43.7303 979.017 43.4429 979.016 43.149L979.006 40.8792C977.827 40.0529 976.422 39.6088 974.982 39.6069C973.542 39.605 972.137 40.0454 970.955 40.8686L970.945 43.1596C970.941 43.4541 970.85 43.7409 970.684 43.9842C970.518 44.2275 970.284 44.4166 970.011 44.5278L967.211 45.7264C966.936 45.8397 966.633 45.8684 966.341 45.8089C966.049 45.7494 965.782 45.6044 965.573 45.3923L962.772 42.5921C962.35 42.1702 962.113 41.5979 962.113 41.0011C962.113 40.4044 962.35 39.8321 962.772 39.4102ZM986.107 41.5315C986.248 41.3908 986.327 41.2001 986.327 41.0011C986.327 40.8022 986.248 40.6115 986.107 40.4708L986.065 40.4284C982.681 37.5328 973.692 31.6726 963.865 40.439C963.791 40.5044 963.731 40.5837 963.687 40.6724C963.644 40.7612 963.619 40.8576 963.613 40.9561C963.607 41.0547 963.621 41.1534 963.653 41.2467C963.685 41.3399 963.736 41.4259 963.801 41.4997L966.633 44.3316L969.433 43.1331L969.444 40.0996L969.73 39.8768C974.922 35.841 980.162 39.8291 980.21 39.8768L980.496 40.0996L980.512 43.1278L983.307 44.3316L986.107 41.5315Z" fill="white"/>
</g>
<rect x="758" y="17" width="45" height="45" rx="4" fill="#29658A" fill-opacity="0.1"/>
<path d="M777.25 43.75H775.75V42.25C775.751 41.6534 775.988 41.0815 776.41 40.6597C776.831 40.2378 777.403 40.0006 778 40H782.5V41.5H778C777.801 41.5002 777.61 41.5793 777.47 41.7199C777.329 41.8605 777.25 42.0512 777.25 42.25V43.75ZM780.25 39.25C779.657 39.25 779.077 39.0741 778.583 38.7444C778.09 38.4148 777.705 37.9462 777.478 37.3981C777.251 36.8499 777.192 36.2467 777.308 35.6647C777.423 35.0828 777.709 34.5482 778.129 34.1287C778.548 33.7091 779.083 33.4234 779.665 33.3076C780.247 33.1919 780.85 33.2513 781.398 33.4784C781.946 33.7054 782.415 34.0899 782.744 34.5833C783.074 35.0766 783.25 35.6567 783.25 36.25C783.249 37.0453 782.933 37.8078 782.37 38.3702C781.808 38.9326 781.045 39.249 780.25 39.25ZM780.25 34.75C779.953 34.75 779.663 34.838 779.417 35.0028C779.17 35.1676 778.978 35.4019 778.864 35.676C778.751 35.9501 778.721 36.2517 778.779 36.5426C778.837 36.8336 778.98 37.1009 779.189 37.3107C779.399 37.5204 779.666 37.6633 779.957 37.7212C780.248 37.7791 780.55 37.7494 780.824 37.6358C781.098 37.5223 781.332 37.33 781.497 37.0834C781.662 36.8367 781.75 36.5467 781.75 36.25C781.75 35.8523 781.591 35.471 781.31 35.1898C781.029 34.9086 780.648 34.7504 780.25 34.75ZM787 44.5C786.407 44.5 785.827 44.3241 785.333 43.9944C784.84 43.6648 784.455 43.1962 784.228 42.6481C784.001 42.0999 783.942 41.4967 784.058 40.9147C784.173 40.3328 784.459 39.7982 784.879 39.3787C785.298 38.9591 785.833 38.6734 786.415 38.5576C786.997 38.4419 787.6 38.5013 788.148 38.7284C788.696 38.9554 789.165 39.3399 789.494 39.8333C789.824 40.3266 790 40.9067 790 41.5C789.999 42.2953 789.683 43.0578 789.12 43.6202C788.558 44.1826 787.795 44.499 787 44.5ZM787 40C786.703 40 786.413 40.088 786.167 40.2528C785.92 40.4176 785.728 40.6519 785.614 40.926C785.501 41.2001 785.471 41.5017 785.529 41.7926C785.587 42.0836 785.73 42.3509 785.939 42.5607C786.149 42.7704 786.416 42.9133 786.707 42.9712C786.998 43.0291 787.3 42.9994 787.574 42.8858C787.848 42.7723 788.082 42.58 788.247 42.3334C788.412 42.0867 788.5 41.7967 788.5 41.5C788.5 41.1023 788.341 40.721 788.06 40.4398C787.779 40.1586 787.398 40.0004 787 40ZM791.5 49H790V47.5C790 47.3012 789.921 47.1105 789.78 46.9699C789.64 46.8293 789.449 46.7502 789.25 46.75H784.75C784.551 46.7502 784.36 46.8293 784.22 46.9699C784.079 47.1105 784 47.3012 784 47.5V49H782.5V47.5C782.501 46.9034 782.738 46.3315 783.16 45.9097C783.581 45.4878 784.153 45.2506 784.75 45.25H789.25C789.847 45.2506 790.419 45.4878 790.84 45.9097C791.262 46.3315 791.499 46.9034 791.5 47.5V49Z" fill="white"/>
<path d="M779.5 48.7997L775.575 46.7073C774.494 46.1325 773.59 45.2742 772.96 44.2247C772.331 43.1752 771.999 41.974 772 40.75V31H787V35.5H788.5V31C788.5 30.6023 788.341 30.221 788.06 29.9398C787.779 29.6586 787.398 29.5004 787 29.5H772C771.602 29.5004 771.221 29.6586 770.94 29.9398C770.659 30.221 770.5 30.6023 770.5 31V40.75C770.498 42.2458 770.904 43.7137 771.674 44.9964C772.443 46.279 773.547 47.3278 774.868 48.0303L779.5 50.5V48.7997Z" fill="white"/>
<rect x="823" y="17" width="45" height="45" rx="4" fill="#29658A" fill-opacity="0.1"/>
<path d="M841.5 38.5H850.5V41.5H841.5V38.5Z" fill="white"/>
<path d="M853.5 31H838.5C838.102 31 837.721 31.158 837.439 31.4393C837.158 31.7206 837 32.1022 837 32.5V47.5C837 47.8978 837.158 48.2794 837.439 48.5607C837.721 48.842 838.102 49 838.5 49H853.5C853.898 49 854.279 48.842 854.561 48.5607C854.842 48.2794 855 47.8978 855 47.5V32.5C855 32.1022 854.842 31.7206 854.561 31.4393C854.279 31.158 853.898 31 853.5 31ZM838.5 47.5V32.5H853.5V47.5H838.5Z" fill="white"/>
<rect x="693" y="17" width="45" height="45" rx="4" fill="#29658A" fill-opacity="0.1"/>
<path d="M716.001 30.9997C716.2 30.9997 716.39 31.0787 716.531 31.2194C716.672 31.36 716.751 31.5508 716.751 31.7497V37.7497C716.751 37.9486 716.83 38.1394 716.97 38.28C717.111 38.4207 717.302 38.4997 717.501 38.4997C717.7 38.4997 717.89 38.4207 718.031 38.28C718.172 38.1394 718.251 37.9486 718.251 37.7497V33.2497C718.251 33.0508 718.33 32.86 718.47 32.7194C718.611 32.5787 718.802 32.4997 719.001 32.4997C719.2 32.4997 719.39 32.5787 719.531 32.7194C719.672 32.86 719.751 33.0508 719.751 33.2497V39.2497C719.751 39.4486 719.83 39.6394 719.97 39.78C720.111 39.9207 720.302 39.9997 720.501 39.9997C720.7 39.9997 720.89 39.9207 721.031 39.78C721.172 39.6394 721.251 39.4486 721.251 39.2497V36.2497C721.25 36.0508 721.329 35.8599 721.47 35.7191C721.61 35.5783 721.801 35.4991 722 35.4989C722.199 35.4987 722.39 35.5776 722.53 35.7181C722.671 35.8586 722.75 36.0493 722.751 36.2482V42.2497C722.751 43.1032 722.371 44.1862 721.8 45.3067C721.239 46.4047 720.54 47.4487 719.998 48.1957C719.806 48.4509 719.556 48.6569 719.269 48.7967C718.982 48.9365 718.666 49.0061 718.347 48.9997H715.602C714.508 48.9997 713.491 48.1597 712.984 46.9597C712.108 44.8897 710.716 43.1872 709.564 42.0127C709.091 41.5304 708.594 41.0723 708.075 40.6402L708.054 40.6237C708.219 40.4542 708.369 40.3417 708.507 40.2667C708.715 40.1466 708.958 40.1011 709.195 40.1377C709.705 40.2112 710.305 40.6162 710.97 41.2807C711.075 41.3858 711.208 41.4575 711.354 41.4865C711.5 41.5156 711.651 41.5007 711.788 41.4439C711.925 41.387 712.042 41.2906 712.125 41.1671C712.207 41.0435 712.251 40.8982 712.251 40.7497V33.2497C712.249 33.0508 712.327 32.8595 712.467 32.7178C712.606 32.5762 712.797 32.4958 712.995 32.4944C713.194 32.493 713.386 32.5707 713.527 32.7104C713.669 32.8501 713.749 33.0403 713.751 33.2392V37.7497C713.751 37.9486 713.83 38.1394 713.97 38.28C714.111 38.4207 714.302 38.4997 714.501 38.4997C714.7 38.4997 714.89 38.4207 715.031 38.28C715.172 38.1394 715.251 37.9486 715.251 37.7497V31.7497C715.251 31.5508 715.33 31.36 715.47 31.2194C715.611 31.0787 715.802 30.9997 716.001 30.9997ZM721.251 34.1272V33.2497C721.251 32.8825 721.161 32.5208 720.989 32.1962C720.818 31.8717 720.569 31.5941 720.265 31.3877C719.962 31.1813 719.612 31.0524 719.247 31.0122C718.882 30.972 718.513 31.0218 718.171 31.1572C718.041 30.6812 717.758 30.2611 717.366 29.9617C716.974 29.6622 716.494 29.5 716.001 29.5C715.507 29.5 715.027 29.6622 714.635 29.9617C714.243 30.2611 713.96 30.6812 713.83 31.1572C713.489 31.0218 713.12 30.972 712.755 31.0122C712.39 31.0524 712.04 31.1813 711.736 31.3877C711.432 31.5941 711.184 31.8717 711.012 32.1962C710.84 32.5208 710.751 32.8825 710.751 33.2497V39.1717C710.344 38.9084 709.888 38.7317 709.41 38.6527C708.849 38.5698 708.277 38.6753 707.784 38.9527C707.262 39.2377 706.797 39.7027 706.377 40.3327C706.268 40.4947 706.227 40.6926 706.262 40.8844C706.297 41.0762 706.406 41.2469 706.564 41.3602L706.57 41.3647L706.596 41.3827L706.704 41.4652C707.334 41.9591 707.931 42.4932 708.492 43.0642C709.573 44.1652 710.827 45.7132 711.603 47.5447C712.258 49.0957 713.71 50.4997 715.602 50.4997H718.347C719.455 50.4997 720.537 50.0092 721.212 49.0747C721.777 48.2962 722.526 47.1832 723.136 45.9877C723.736 44.8147 724.251 43.4677 724.251 42.2497V36.2482C724.251 35.8883 724.164 35.5336 723.999 35.214C723.833 34.8943 723.593 34.6191 723.3 34.4113C723.006 34.2035 722.666 34.0693 722.31 34.0198C721.953 33.9704 721.59 34.0072 721.251 34.1272ZM721.251 39.2497V39.2587V39.2497Z" fill="white"/>
<rect x="888" y="18" width="45" height="45" rx="4" fill="#29658A" fill-opacity="0.1"/>
<path fill-rule="evenodd" clip-rule="evenodd" d="M913.379 33H903.571C902.889 33 902.235 33.2709 901.753 33.7532C901.271 34.2354 901 34.8894 901 35.5714V43.2857C901 43.9677 901.271 44.6218 901.753 45.104C902.235 45.5862 902.889 45.8571 903.571 45.8571H909.357V44.5714H903.571C903.23 44.5714 902.903 44.436 902.662 44.1949C902.421 43.9537 902.286 43.6267 902.286 43.2857V35.5714C902.286 35.2304 902.421 34.9034 902.662 34.6623C902.903 34.4212 903.23 34.2857 903.571 34.2857H912.759C912.897 33.8213 913.108 33.3883 913.379 33ZM917.714 40.0268C918.168 39.962 918.6 39.8294 919 39.6396V43.2857C919 43.9677 918.729 44.6218 918.247 45.104C917.765 45.5862 917.111 45.8571 916.429 45.8571H913.317L911.119 49.7143L910 49.0714L912.571 44.5714H916.429C916.77 44.5714 917.097 44.436 917.338 44.1949C917.579 43.9537 917.714 43.6267 917.714 43.2857V40.0268Z" fill="white"/>
<circle cx="918" cy="35" r="3" fill="#FE654F"/>
<rect x="1375" y="17" width="45" height="45" rx="4" fill="#29658A" fill-opacity="0.1"/>
<path d="M1408.5 34H1405.42C1405.05 32.275 1403.55 31 1401.75 31C1399.95 31 1398.45 32.275 1398.08 34H1387.5V35.5H1398.08C1398.45 37.225 1399.95 38.5 1401.75 38.5C1403.55 38.5 1405.05 37.225 1405.42 35.5H1408.5V34ZM1401.75 37C1400.48 37 1399.5 36.025 1399.5 34.75C1399.5 33.475 1400.48 32.5 1401.75 32.5C1403.02 32.5 1404 33.475 1404 34.75C1404 36.025 1403.02 37 1401.75 37ZM1387.5 46H1390.57C1390.95 47.725 1392.45 49 1394.25 49C1396.05 49 1397.55 47.725 1397.92 46H1408.5V44.5H1397.92C1397.55 42.775 1396.05 41.5 1394.25 41.5C1392.45 41.5 1390.95 42.775 1390.57 44.5H1387.5V46ZM1394.25 43C1395.52 43 1396.5 43.975 1396.5 45.25C1396.5 46.525 1395.52 47.5 1394.25 47.5C1392.97 47.5 1392 46.525 1392 45.25C1392 43.975 1392.97 43 1394.25 43Z" fill="white"/>
<defs>
<clipPath id="clip0_121_23457">
<rect width="24" height="24" fill="white" transform="translate(991.941 41) rotate(135)"/>
</clipPath>
</defs>
</svg>
