<svg width="20" height="20" viewBox="0 0 20 20" fill="none" xmlns="http://www.w3.org/2000/svg">
<path d="M18.75 15H16.25V12.5H15V15H12.5V16.25H15V18.75H16.25V16.25H18.75V15Z" fill="white"/>
<path d="M10 17.5002H5V2.50021H10V6.25021C10.001 6.58143 10.133 6.8988 10.3672 7.133C10.6014 7.36721 10.9188 7.49922 11.25 7.50021H15V10.0002H16.25V6.25021C16.2522 6.16807 16.2366 6.08643 16.2042 6.0109C16.1719 5.93538 16.1235 5.86776 16.0625 5.81271L11.6875 1.43771C11.6325 1.37668 11.5649 1.32831 11.4893 1.29594C11.4138 1.26356 11.3321 1.24797 11.25 1.25021H5C4.66878 1.2512 4.35142 1.38322 4.11721 1.61742C3.883 1.85163 3.75099 2.169 3.75 2.50021V17.5002C3.75099 17.8314 3.883 18.1488 4.11721 18.383C4.35142 18.6172 4.66878 18.7492 5 18.7502H10V17.5002ZM11.25 2.75021L14.75 6.25021H11.25V2.75021Z" fill="white"/>
</svg>
