<svg width="20" height="20" viewBox="0 0 20 20" fill="none" xmlns="http://www.w3.org/2000/svg">
<path d="M10 1.25C8.26942 1.25 6.57769 1.76318 5.13876 2.72464C3.69983 3.6861 2.57832 5.05267 1.91606 6.65152C1.25379 8.25037 1.08051 10.0097 1.41813 11.707C1.75575 13.4044 2.58911 14.9635 3.81282 16.1872C5.03653 17.4109 6.59563 18.2442 8.29296 18.5819C9.9903 18.9195 11.7496 18.7462 13.3485 18.0839C14.9473 17.4217 16.3139 16.3002 17.2754 14.8612C18.2368 13.4223 18.75 11.7306 18.75 10C18.75 7.67936 17.8281 5.45376 16.1872 3.81282C14.5462 2.17187 12.3206 1.25 10 1.25ZM10 17.5C8.51664 17.5 7.0666 17.0601 5.83323 16.236C4.59986 15.4119 3.63856 14.2406 3.07091 12.8701C2.50325 11.4997 2.35473 9.99168 2.64411 8.53682C2.9335 7.08197 3.64781 5.74559 4.6967 4.6967C5.7456 3.64781 7.08197 2.9335 8.53683 2.64411C9.99168 2.35472 11.4997 2.50325 12.8701 3.0709C14.2406 3.63856 15.4119 4.59985 16.236 5.83322C17.0601 7.06659 17.5 8.51664 17.5 10C17.5 11.9891 16.7098 13.8968 15.3033 15.3033C13.8968 16.7098 11.9891 17.5 10 17.5Z" fill="white"/>
<path d="M10 15.625C10.5178 15.625 10.9375 15.2053 10.9375 14.6875C10.9375 14.1697 10.5178 13.75 10 13.75C9.48223 13.75 9.0625 14.1697 9.0625 14.6875C9.0625 15.2053 9.48223 15.625 10 15.625Z" fill="white"/>
<path d="M10.625 5.00001H9.68751C9.31793 4.99918 8.95184 5.07137 8.61024 5.21242C8.26864 5.35347 7.95826 5.5606 7.69693 5.82193C7.4356 6.08326 7.22847 6.39364 7.08742 6.73524C6.94637 7.07684 6.87418 7.44293 6.87501 7.81251V8.12501H8.12501V7.81251C8.12501 7.39811 8.28963 7.00068 8.58265 6.70765C8.87568 6.41463 9.27311 6.25001 9.68751 6.25001H10.625C11.0394 6.25001 11.4368 6.41463 11.7299 6.70765C12.0229 7.00068 12.1875 7.39811 12.1875 7.81251C12.1875 8.22691 12.0229 8.62434 11.7299 8.91736C11.4368 9.21039 11.0394 9.37501 10.625 9.37501H9.37501V12.1875H10.625V10.625C11.3709 10.625 12.0863 10.3287 12.6137 9.80124C13.1412 9.2738 13.4375 8.55843 13.4375 7.81251C13.4375 7.06659 13.1412 6.35122 12.6137 5.82377C12.0863 5.29632 11.3709 5.00001 10.625 5.00001Z" fill="white"/>
</svg>
