<svg width="20" height="20" viewBox="0 0 20 20" fill="none" xmlns="http://www.w3.org/2000/svg">
<path d="M12.091 17.9728H8.98633V14.8682L12.5271 11.3274C12.5113 11.1986 12.5033 11.0689 12.5032 10.9392C12.5027 10.2269 12.7184 9.53132 13.1219 8.9444C13.5254 8.35748 14.0976 7.9069 14.7628 7.6523C15.428 7.39769 16.1548 7.35106 16.8471 7.51856C17.5393 7.68607 18.1644 8.05982 18.6396 8.59036C19.1148 9.1209 19.4177 9.78322 19.5083 10.4897C19.5988 11.1961 19.4727 11.9135 19.1467 12.5467C18.8206 13.1799 18.31 13.6992 17.6823 14.0359C17.0547 14.3726 16.3396 14.5107 15.6317 14.4321L12.091 17.9728ZM10.3931 16.5661H11.5086L15.1703 12.9044L15.5501 12.9916C16.0023 13.0992 16.4772 13.0563 16.9027 12.8694C17.3283 12.6825 17.6812 12.3618 17.9079 11.956C18.1346 11.5503 18.2226 11.0817 18.1587 10.6213C18.0948 10.161 17.8824 9.73403 17.5538 9.40539C17.2251 9.07674 16.7982 8.86433 16.3378 8.80042C15.8775 8.73651 15.4088 8.82459 15.0031 9.05128C14.5974 9.27797 14.2767 9.63088 14.0898 10.0564C13.9029 10.482 13.86 10.9569 13.9676 11.409L14.0548 11.7888L10.3931 15.4506V16.5661Z" fill="white"/>
<path d="M16.0217 11.6431C16.4102 11.6431 16.7251 11.3282 16.7251 10.9397C16.7251 10.5512 16.4102 10.2363 16.0217 10.2363C15.6333 10.2363 15.3184 10.5512 15.3184 10.9397C15.3184 11.3282 15.6333 11.6431 16.0217 11.6431Z" fill="white"/>
<path d="M4.06445 5.3125H12.5048V6.71923H4.06445V5.3125ZM4.06445 8.12596H8.28465V9.53269H4.06445V8.12596ZM4.06445 10.9394H8.28465V12.3462H4.06445V10.9394Z" fill="white"/>
<path d="M6.87692 17.974H2.65673C2.28376 17.9737 1.92617 17.8253 1.66243 17.5616C1.3987 17.2979 1.25037 16.9403 1.25 16.5673V3.90673C1.25037 3.53376 1.3987 3.17617 1.66243 2.91243C1.92617 2.6487 2.28376 2.50037 2.65673 2.5H13.9106C14.2835 2.50037 14.6411 2.6487 14.9049 2.91243C15.1686 3.17617 15.3169 3.53376 15.3173 3.90673V6.01683H13.9106V3.90673H2.65673V16.5673H6.87692V17.974Z" fill="white"/>
</svg>
