<svg width="20" height="20" viewBox="0 0 20 20" fill="none" xmlns="http://www.w3.org/2000/svg">
<path d="M15.8937 5L19.6875 8.75L15.8937 12.5L15 11.6187L17.9 8.75L15 5.88125L15.8937 5Z" fill="white"/>
<path d="M13.75 18.5H12.5V15.375C12.5 14.5462 12.1708 13.7513 11.5847 13.1653C10.9987 12.5792 10.2038 12.25 9.375 12.25H5.625C4.7962 12.25 4.00134 12.5792 3.41529 13.1653C2.82924 13.7513 2.5 14.5462 2.5 15.375V18.5H1.25V15.375C1.25 14.2147 1.71094 13.1019 2.53141 12.2814C3.35188 11.4609 4.46468 11 5.625 11H9.375C10.5353 11 11.6481 11.4609 12.4686 12.2814C13.2891 13.1019 13.75 14.2147 13.75 15.375V18.5ZM7.5 2.25C8.11807 2.25 8.72225 2.43328 9.23616 2.77666C9.75006 3.12004 10.1506 3.60809 10.3871 4.17911C10.6236 4.75013 10.6855 5.37847 10.565 5.98466C10.4444 6.59085 10.1467 7.14767 9.70971 7.58471C9.27267 8.02175 8.71585 8.31938 8.10966 8.43995C7.50347 8.56053 6.87513 8.49865 6.30411 8.26212C5.7331 8.0256 5.24504 7.62506 4.90166 7.11116C4.55828 6.59725 4.375 5.99307 4.375 5.375C4.375 4.5462 4.70424 3.75134 5.29029 3.16529C5.87634 2.57924 6.6712 2.25 7.5 2.25ZM7.5 1C6.63471 1 5.78885 1.25659 5.06938 1.73732C4.34992 2.21805 3.78916 2.90133 3.45803 3.70076C3.12689 4.50019 3.04025 5.37985 3.20906 6.22852C3.37787 7.07719 3.79455 7.85674 4.40641 8.46859C5.01826 9.08045 5.79781 9.49713 6.64648 9.66594C7.49515 9.83475 8.37481 9.74811 9.17424 9.41697C9.97367 9.08584 10.6569 8.52508 11.1377 7.80562C11.6184 7.08615 11.875 6.24029 11.875 5.375C11.875 4.21468 11.4141 3.10188 10.5936 2.28141C9.77312 1.46094 8.66032 1 7.5 1Z" fill="white"/>
</svg>
