<svg width="16" height="16" viewBox="0 0 16 16" fill="none" xmlns="http://www.w3.org/2000/svg">
<path d="M14.5003 13.7933L10.7243 10.0173C11.6317 8.92796 12.0842 7.53072 11.9876 6.11625C11.8911 4.70179 11.2529 3.379 10.2059 2.42306C9.15892 1.46712 7.78367 0.951639 6.36628 0.983845C4.94889 1.01605 3.59848 1.59347 2.59597 2.59597C1.59347 3.59848 1.01605 4.94889 0.983845 6.36628C0.951639 7.78367 1.46712 9.15892 2.42306 10.2059C3.379 11.2529 4.70179 11.8911 6.11625 11.9876C7.53072 12.0842 8.92796 11.6317 10.0173 10.7243L13.7933 14.5003L14.5003 13.7933ZM2.0003 6.5003C2.0003 5.61029 2.26422 4.74026 2.75869 4.00024C3.25316 3.26022 3.95596 2.68344 4.77823 2.34284C5.60049 2.00225 6.50529 1.91313 7.37821 2.08677C8.25112 2.2604 9.05295 2.68899 9.68228 3.31832C10.3116 3.94766 10.7402 4.74948 10.9138 5.6224C11.0875 6.49531 10.9984 7.40011 10.6578 8.22238C10.3172 9.04465 9.74039 9.74745 9.00037 10.2419C8.26035 10.7364 7.39032 11.0003 6.5003 11.0003C5.30723 10.999 4.16341 10.5244 3.31978 9.68082C2.47616 8.8372 2.00163 7.69337 2.0003 6.5003Z" fill="#060F14" fill-opacity="0.5"/>
</svg>
