<svg width="20" height="20" viewBox="0 0 20 20" fill="none" xmlns="http://www.w3.org/2000/svg">
<path d="M4.375 17.4999C4.20924 17.4999 4.05027 17.434 3.93306 17.3168C3.81585 17.1996 3.75 17.0407 3.75 16.8749V3.12489C3.75002 3.01629 3.77834 2.90956 3.83217 2.81523C3.886 2.7209 3.96348 2.64223 4.05697 2.58696C4.15047 2.5317 4.25675 2.50175 4.36534 2.50007C4.47394 2.4984 4.58109 2.52504 4.67625 2.57739L17.1763 9.45239C17.2742 9.50635 17.356 9.58561 17.4129 9.68191C17.4698 9.77822 17.4998 9.88803 17.4998 9.99989C17.4998 10.1118 17.4698 10.2216 17.4129 10.3179C17.356 10.4142 17.2742 10.4934 17.1763 10.5474L4.67625 17.4224C4.58397 17.4732 4.48034 17.4999 4.375 17.4999ZM5 4.18114V15.8186L15.5781 9.99989L5 4.18114Z" fill="white"/>
</svg>
