<svg width="20" height="20" viewBox="0 0 20 20" fill="none" xmlns="http://www.w3.org/2000/svg">
<path d="M12.091 17.9748H8.98633V14.8701L12.5271 11.3294C12.5113 11.2006 12.5033 11.0709 12.5032 10.9411C12.5027 10.2289 12.7184 9.53328 13.1219 8.94635C13.5254 8.35943 14.0976 7.90886 14.7628 7.65425C15.428 7.39965 16.1548 7.35301 16.8471 7.52052C17.5393 7.68802 18.1644 8.06177 18.6396 8.59231C19.1148 9.12285 19.4177 9.78518 19.5083 10.4916C19.5988 11.1981 19.4727 11.9154 19.1467 12.5486C18.8206 13.1819 18.31 13.7012 17.6823 14.0378C17.0547 14.3745 16.3396 14.5127 15.6317 14.434L12.091 17.9748ZM10.3931 16.568H11.5086L15.1703 12.9063L15.5501 12.9935C16.0023 13.1011 16.4772 13.0582 16.9027 12.8713C17.3283 12.6844 17.6812 12.3637 17.9079 11.958C18.1346 11.5523 18.2226 11.0836 18.1587 10.6233C18.0948 10.1629 17.8824 9.73598 17.5538 9.40734C17.2251 9.07869 16.7982 8.86629 16.3378 8.80237C15.8775 8.73846 15.4088 8.82654 15.0031 9.05323C14.5974 9.27992 14.2767 9.63283 14.0898 10.0584C13.9029 10.4839 13.86 10.9588 13.9676 11.411L14.0548 11.7908L10.3931 15.4525V16.568Z" fill="white" fill-opacity="0.5"/>
<path d="M16.0207 11.645C16.4092 11.645 16.7241 11.3301 16.7241 10.9416C16.7241 10.5532 16.4092 10.2383 16.0207 10.2383C15.6323 10.2383 15.3174 10.5532 15.3174 10.9416C15.3174 11.3301 15.6323 11.645 16.0207 11.645Z" fill="white" fill-opacity="0.5"/>
<path d="M4.06445 5.3125H12.5048V6.71923H4.06445V5.3125ZM4.06445 8.12596H8.28465V9.53269H4.06445V8.12596ZM4.06445 10.9394H8.28465V12.3462H4.06445V10.9394Z" fill="white" fill-opacity="0.5"/>
<path d="M6.87692 17.974H2.65673C2.28376 17.9737 1.92617 17.8253 1.66243 17.5616C1.3987 17.2979 1.25037 16.9403 1.25 16.5673V3.90673C1.25037 3.53376 1.3987 3.17617 1.66243 2.91243C1.92617 2.6487 2.28376 2.50037 2.65673 2.5H13.9106C14.2835 2.50037 14.6411 2.6487 14.9049 2.91243C15.1686 3.17617 15.3169 3.53376 15.3173 3.90673V6.01683H13.9106V3.90673H2.65673V16.5673H6.87692V17.974Z" fill="white" fill-opacity="0.5"/>
</svg>
