<svg width="140" height="40" viewBox="0 0 140 40" fill="none" xmlns="http://www.w3.org/2000/svg">
<rect x="50" width="40" height="40" rx="4" fill="#060F14" fill-opacity="0.2"/>
<path d="M63.125 11.8763L66.875 11.88C67.0408 11.88 67.1997 11.9458 67.3169 12.0631C67.4342 12.1803 67.5 12.3392 67.5 12.505C67.5 12.6708 67.4342 12.8297 67.3169 12.9469C67.1997 13.0642 67.0408 13.13 66.875 13.13L63.125 13.1262V16.875C63.125 17.0408 63.0592 17.1997 62.9419 17.3169C62.8247 17.4342 62.6658 17.5 62.5 17.5C62.3342 17.5 62.1753 17.4342 62.0581 17.3169C61.9408 17.1997 61.875 17.0408 61.875 16.875V11.875H63.125V11.8763ZM63.125 28.1237V28.125H61.875V23.125C61.875 22.9592 61.9408 22.8003 62.0581 22.6831C62.1753 22.5658 62.3342 22.5 62.5 22.5C62.6658 22.5 62.8247 22.5658 62.9419 22.6831C63.0592 22.8003 63.125 22.9592 63.125 23.125V26.8737L66.875 26.87C67.0408 26.87 67.1997 26.9358 67.3169 27.0531C67.4342 27.1703 67.5 27.3292 67.5 27.495C67.5 27.6608 67.4342 27.8197 67.3169 27.9369C67.1997 28.0542 67.0408 28.12 66.875 28.12L63.125 28.1237ZM76.875 11.8763V11.875H78.125V16.875C78.125 17.0408 78.0592 17.1997 77.9419 17.3169C77.8247 17.4342 77.6658 17.5 77.5 17.5C77.3342 17.5 77.1753 17.4342 77.0581 17.3169C76.9408 17.1997 76.875 17.0408 76.875 16.875V13.1262L73.125 13.13C72.9592 13.13 72.8003 13.0642 72.6831 12.9469C72.5658 12.8297 72.5 12.6708 72.5 12.505C72.5 12.3392 72.5658 12.1803 72.6831 12.0631C72.8003 11.9458 72.9592 11.88 73.125 11.88L76.875 11.8763ZM76.875 28.1237L73.125 28.12C72.9592 28.12 72.8003 28.0542 72.6831 27.9369C72.5658 27.8197 72.5 27.6608 72.5 27.495C72.5 27.3292 72.5658 27.1703 72.6831 27.0531C72.8003 26.9358 72.9592 26.87 73.125 26.87L76.875 26.8737V23.125C76.875 22.9592 76.9408 22.8003 77.0581 22.6831C77.1753 22.5658 77.3342 22.5 77.5 22.5C77.6658 22.5 77.8247 22.5658 77.9419 22.6831C78.0592 22.8003 78.125 22.9592 78.125 23.125V28.125H76.875V28.1237Z" fill="white"/>
<rect width="40" height="40" rx="4" fill="#060F14" fill-opacity="0.2"/>
<path d="M27.5005 27.5005H20.6255C20.294 27.5001 19.9763 27.3683 19.742 27.134C19.5076 26.8996 19.3758 26.5819 19.3755 26.2505V22.5005C19.3758 22.1691 19.5076 21.8513 19.742 21.617C19.9763 21.3826 20.294 21.2508 20.6255 21.2505H27.5005C27.8318 21.251 28.1495 21.3828 28.3838 21.6171C28.6181 21.8514 28.75 22.1691 28.7505 22.5005V26.2505C28.75 26.5818 28.6181 26.8995 28.3838 27.1338C28.1495 27.3681 27.8318 27.5 27.5005 27.5005ZM20.6255 22.5005V26.2505H27.5017L27.5005 22.5005H20.6255ZM17.5005 16.2505V18.4917L14.8173 15.8086L13.9336 16.6923L16.6167 19.3755H14.3755V20.6255H18.7505V16.2505H17.5005Z" fill="white"/>
<path d="M18.125 23.75H12.5C12.1686 23.7497 11.8508 23.6179 11.6165 23.3835C11.3821 23.1492 11.2503 22.8314 11.25 22.5V14.375C11.2503 14.0436 11.3821 13.7258 11.6165 13.4915C11.8508 13.2571 12.1686 13.1253 12.5 13.125H26.25C26.5814 13.1253 26.8992 13.2571 27.1335 13.4915C27.3679 13.7258 27.4997 14.0436 27.5 14.375V20H26.25V14.375H12.5V22.5H18.125V23.75Z" fill="white"/>
<rect x="100" width="40" height="40" rx="4" fill="#060F14" fill-opacity="0.2"/>
<path d="M122.5 11.25V12.5H126.616L121.25 17.8637L122.134 18.75L127.5 13.3837V17.5H128.75V11.25H122.5ZM118.75 22.135L117.87 21.25L112.5 26.6162V22.5H111.25V28.75H117.5V27.5H113.384L118.75 22.135Z" fill="white"/>
</svg>
